<mxfile host="app.diagrams.net" modified="2021-10-06T11:27:39.390Z" agent="5.0 (X11)" etag="ZzBVUrha1NlnWSBhCro6" version="15.4.3" type="github">
  <diagram id="32pD6Mgdrob-2-kdGt0O" name="Page-1">
    <mxGraphModel dx="1548" dy="850" grid="1" gridSize="10" guides="1" tooltips="1" connect="1" arrows="1" fold="1" page="1" pageScale="1" pageWidth="850" pageHeight="1100" math="0" shadow="0">
      <root>
        <mxCell id="0" />
        <mxCell id="1" parent="0" />
        <mxCell id="PYGytnlDTvrPuYwY2Jof-12" value="&lt;div style=&quot;font-size: 18px;&quot;&gt;&lt;font style=&quot;font-size: 18px;&quot;&gt;creates and &lt;br style=&quot;font-size: 18px;&quot;&gt;&lt;/font&gt;&lt;/div&gt;&lt;div style=&quot;font-size: 18px;&quot;&gt;&lt;font style=&quot;font-size: 18px;&quot;&gt;operates on&lt;br style=&quot;font-size: 18px;&quot;&gt;&lt;/font&gt;&lt;/div&gt;" style="edgeStyle=orthogonalEdgeStyle;rounded=0;orthogonalLoop=1;jettySize=auto;html=1;entryX=0;entryY=0.5;entryDx=0;entryDy=0;strokeWidth=4;verticalAlign=bottom;fontSize=18;labelBackgroundColor=none;spacingLeft=0;spacingBottom=2;" parent="1" source="PYGytnlDTvrPuYwY2Jof-9" target="PYGytnlDTvrPuYwY2Jof-10" edge="1">
          <mxGeometry relative="1" as="geometry" />
        </mxCell>
        <mxCell id="PYGytnlDTvrPuYwY2Jof-9" value="Command-line interface" style="swimlane;rounded=1;startSize=23;fontSize=14;" parent="1" vertex="1">
          <mxGeometry x="40" y="190" width="200" height="210" as="geometry">
            <mxRectangle x="10" y="210" width="140" height="23" as="alternateBounds" />
          </mxGeometry>
        </mxCell>
        <mxCell id="PYGytnlDTvrPuYwY2Jof-8" value="" style="points=[[0,0,0],[0.25,0,0],[0.5,0,0],[0.75,0,0],[1,0,0],[0,1,0],[0.25,1,0],[0.5,1,0],[0.75,1,0],[1,1,0],[0,0.25,0],[0,0.5,0],[0,0.75,0],[1,0.25,0],[1,0.5,0],[1,0.75,0]];outlineConnect=0;fontColor=#232F3E;gradientColor=#4D72F3;gradientDirection=north;fillColor=#3334B9;strokeColor=#ffffff;dashed=0;verticalLabelPosition=bottom;verticalAlign=top;align=center;html=1;fontSize=12;fontStyle=0;aspect=fixed;shape=mxgraph.aws4.resourceIcon;resIcon=mxgraph.aws4.command_line_interface;" parent="PYGytnlDTvrPuYwY2Jof-9" vertex="1">
          <mxGeometry x="40" y="50" width="120" height="120" as="geometry" />
        </mxCell>
        <mxCell id="PYGytnlDTvrPuYwY2Jof-15" value="&lt;div style=&quot;font-size: 18px;&quot;&gt;creates and &lt;br style=&quot;font-size: 18px;&quot;&gt;&lt;/div&gt;&lt;div style=&quot;font-size: 18px;&quot;&gt;operates on&lt;/div&gt;&lt;div style=&quot;font-size: 18px;&quot;&gt;multiple&lt;br style=&quot;font-size: 18px;&quot;&gt;&lt;/div&gt;" style="edgeStyle=orthogonalEdgeStyle;rounded=0;orthogonalLoop=1;jettySize=auto;html=1;entryX=0;entryY=0.5;entryDx=0;entryDy=0;strokeWidth=4;verticalAlign=bottom;fontSize=18;labelBackgroundColor=none;" parent="1" source="PYGytnlDTvrPuYwY2Jof-10" target="PYGytnlDTvrPuYwY2Jof-13" edge="1">
          <mxGeometry relative="1" as="geometry" />
        </mxCell>
        <mxCell id="PYGytnlDTvrPuYwY2Jof-10" value="Parse object" style="swimlane;rounded=1;fontSize=14;" parent="1" vertex="1">
          <mxGeometry x="360" y="190" width="200" height="210" as="geometry">
            <mxRectangle x="10" y="210" width="140" height="23" as="alternateBounds" />
          </mxGeometry>
        </mxCell>
        <mxCell id="PYGytnlDTvrPuYwY2Jof-3" value="" style="shape=image;html=1;verticalAlign=top;verticalLabelPosition=bottom;labelBackgroundColor=#ffffff;imageAspect=0;aspect=fixed;image=https://cdn2.iconfinder.com/data/icons/essential-web-2/50/stack-layer-pile-element-material-128.png" parent="PYGytnlDTvrPuYwY2Jof-10" vertex="1">
          <mxGeometry x="36" y="50" width="128" height="128" as="geometry" />
        </mxCell>
        <mxCell id="PYGytnlDTvrPuYwY2Jof-21" value="&lt;div style=&quot;font-size: 18px;&quot;&gt;&lt;font style=&quot;font-size: 18px&quot;&gt;contains and&lt;/font&gt;&lt;/div&gt;&lt;div style=&quot;font-size: 18px;&quot;&gt;&lt;font style=&quot;font-size: 18px&quot;&gt;operates on&lt;br style=&quot;font-size: 18px;&quot;&gt;&lt;/font&gt;&lt;/div&gt;" style="rounded=0;orthogonalLoop=1;jettySize=auto;html=1;exitX=1;exitY=0.5;exitDx=0;exitDy=0;entryX=0;entryY=0.5;entryDx=0;entryDy=0;fontSize=18;strokeWidth=4;verticalAlign=middle;dashed=1;" parent="1" source="PYGytnlDTvrPuYwY2Jof-13" target="PYGytnlDTvrPuYwY2Jof-16" edge="1">
          <mxGeometry relative="1" as="geometry" />
        </mxCell>
        <mxCell id="PYGytnlDTvrPuYwY2Jof-22" value="&lt;div style=&quot;font-size: 18px&quot;&gt;&lt;font style=&quot;font-size: 18px&quot;&gt;contains and&lt;/font&gt;&lt;/div&gt;&lt;div style=&quot;font-size: 18px&quot;&gt;&lt;font style=&quot;font-size: 18px&quot;&gt;operates on&lt;/font&gt;&lt;/div&gt;&lt;div style=&quot;font-size: 18px&quot;&gt;&lt;font style=&quot;font-size: 18px&quot;&gt;any number of&lt;br style=&quot;font-size: 18px&quot;&gt;&lt;/font&gt;&lt;/div&gt;" style="edgeStyle=none;rounded=0;orthogonalLoop=1;jettySize=auto;html=1;exitX=1;exitY=0.5;exitDx=0;exitDy=0;entryX=0;entryY=0.5;entryDx=0;entryDy=0;fontSize=18;strokeWidth=4;verticalAlign=middle;dashed=1;labelBackgroundColor=default;" parent="1" source="PYGytnlDTvrPuYwY2Jof-13" target="PYGytnlDTvrPuYwY2Jof-18" edge="1">
          <mxGeometry relative="1" as="geometry" />
        </mxCell>
        <mxCell id="PYGytnlDTvrPuYwY2Jof-13" value="Score object" style="swimlane;rounded=1;fontSize=14;" parent="1" vertex="1">
          <mxGeometry x="680" y="190" width="200" height="210" as="geometry">
            <mxRectangle x="10" y="210" width="140" height="23" as="alternateBounds" />
          </mxGeometry>
        </mxCell>
        <mxCell id="PYGytnlDTvrPuYwY2Jof-5" value="" style="aspect=fixed;pointerEvents=1;shadow=0;dashed=0;html=1;strokeColor=none;labelPosition=center;verticalLabelPosition=bottom;verticalAlign=top;align=center;fillColor=#00188D;shape=mxgraph.mscae.enterprise.document" parent="PYGytnlDTvrPuYwY2Jof-13" vertex="1">
          <mxGeometry x="52" y="50" width="96" height="120" as="geometry" />
        </mxCell>
        <mxCell id="PYGytnlDTvrPuYwY2Jof-27" value="uses" style="edgeStyle=none;rounded=0;orthogonalLoop=1;jettySize=auto;html=1;entryX=0;entryY=0.5;entryDx=0;entryDy=0;dashed=1;fontSize=18;strokeWidth=4;verticalAlign=bottom;" parent="1" source="PYGytnlDTvrPuYwY2Jof-16" target="PYGytnlDTvrPuYwY2Jof-23" edge="1">
          <mxGeometry relative="1" as="geometry" />
        </mxCell>
        <mxCell id="PYGytnlDTvrPuYwY2Jof-16" value="MSCX object" style="swimlane;rounded=1;fontSize=14;" parent="1" vertex="1">
          <mxGeometry x="1000" y="60" width="200" height="210" as="geometry">
            <mxRectangle x="10" y="210" width="140" height="23" as="alternateBounds" />
          </mxGeometry>
        </mxCell>
        <mxCell id="PYGytnlDTvrPuYwY2Jof-4" value="" style="shape=image;html=1;verticalAlign=top;verticalLabelPosition=bottom;labelBackgroundColor=#ffffff;imageAspect=0;aspect=fixed;image=https://cdn3.iconfinder.com/data/icons/UltimateGnome/128x128/mimetypes/application-xml.png" parent="PYGytnlDTvrPuYwY2Jof-16" vertex="1">
          <mxGeometry x="32" y="50" width="140" height="140" as="geometry" />
        </mxCell>
        <mxCell id="PYGytnlDTvrPuYwY2Jof-18" value="Annotations object" style="swimlane;rounded=1;fontSize=14;" parent="1" vertex="1">
          <mxGeometry x="1000" y="320" width="200" height="210" as="geometry">
            <mxRectangle x="10" y="210" width="140" height="23" as="alternateBounds" />
          </mxGeometry>
        </mxCell>
        <mxCell id="PYGytnlDTvrPuYwY2Jof-20" value="" style="shape=image;html=1;verticalAlign=top;verticalLabelPosition=bottom;labelBackgroundColor=#ffffff;imageAspect=0;aspect=fixed;image=https://cdn0.iconfinder.com/data/icons/view-1/20/long_list-128.png;rounded=1;fontSize=14;startSize=23;labelBorderColor=#000000;imageBorder=#000000;" parent="PYGytnlDTvrPuYwY2Jof-18" vertex="1">
          <mxGeometry x="36" y="50" width="128" height="128" as="geometry" />
        </mxCell>
        <mxCell id="PYGytnlDTvrPuYwY2Jof-23" value="Implemented&#xa;Parsers&#xa;" style="swimlane;fontStyle=0;childLayout=stackLayout;horizontal=1;startSize=50;horizontalStack=0;resizeParent=1;resizeParentMax=0;resizeLast=0;collapsible=1;marginBottom=0;rounded=1;fontSize=16;verticalAlign=top;" parent="1" vertex="1">
          <mxGeometry x="1280" y="110" width="140" height="110" as="geometry" />
        </mxCell>
        <mxCell id="PYGytnlDTvrPuYwY2Jof-24" value="beautifulsoup (bs4)" style="text;strokeColor=none;fillColor=none;align=left;verticalAlign=top;spacingLeft=4;spacingRight=4;overflow=hidden;rotatable=0;points=[[0,0.5],[1,0.5]];portConstraint=eastwest;fontSize=15;" parent="PYGytnlDTvrPuYwY2Jof-23" vertex="1">
          <mxGeometry y="50" width="140" height="26" as="geometry" />
        </mxCell>
        <mxCell id="PYGytnlDTvrPuYwY2Jof-25" value="..." style="text;strokeColor=none;fillColor=none;align=left;verticalAlign=top;spacingLeft=4;spacingRight=4;overflow=hidden;rotatable=0;points=[[0,0.5],[1,0.5]];portConstraint=eastwest;fontSize=15;" parent="PYGytnlDTvrPuYwY2Jof-23" vertex="1">
          <mxGeometry y="76" width="140" height="34" as="geometry" />
        </mxCell>
        <mxCell id="PYGytnlDTvrPuYwY2Jof-29" value="" style="shape=curlyBracket;whiteSpace=wrap;html=1;rounded=1;fontSize=18;startSize=23;verticalAlign=top;rotation=-90;" parent="1" vertex="1">
          <mxGeometry x="445" y="25" width="30" height="860" as="geometry" />
        </mxCell>
        <mxCell id="PYGytnlDTvrPuYwY2Jof-30" value="User interface" style="text;html=1;strokeColor=none;fillColor=none;align=center;verticalAlign=middle;whiteSpace=wrap;rounded=0;fontSize=32;startSize=23;fontStyle=1" parent="1" vertex="1">
          <mxGeometry x="340" y="490" width="240" height="20" as="geometry" />
        </mxCell>
      </root>
    </mxGraphModel>
  </diagram>
</mxfile>
